<svg preserveAspectRatio="none" width="100%" height="100%" overflow="visible" style="display: block;" viewBox="0 0 18 18" fill="none" xmlns="http://www.w3.org/2000/svg">
<g id="Icon" clip-path="url(#clip0_0_4)">
<path id="Vector" fill-rule="evenodd" clip-rule="evenodd" d="M3.3525 11.9588L3.25125 11.7L3.07125 11.4975C2.19521 10.4922 1.7048 9.20835 1.6875 7.875C1.6875 4.6575 4.7475 1.6875 9 1.6875C13.2525 1.6875 16.3125 4.6575 16.3125 7.875C16.3125 11.0925 13.2525 14.0625 9 14.0625C8.5725 14.0625 8.15625 14.0325 7.75125 13.9725L6.9975 13.86L6.42375 14.3438C5.6552 14.9936 4.76921 15.49 3.81375 15.8063C3.88875 15.4163 3.93 15.0225 3.9375 14.625C3.9375 13.6125 3.63375 12.645 3.3525 11.9588ZM1.125 18C1.125 18 1.98 18 3.16125 17.7413C4.76118 17.4185 6.25438 16.699 7.50375 15.6487C7.99125 15.7162 8.49 15.75 9 15.75C13.9725 15.75 18 12.2287 18 7.875C18 3.52125 13.9725 0 9 0C4.0275 0 0 3.52125 0 7.875C0 9.64125 0.675 11.2725 1.8 12.5887C2.025 13.1962 2.25 13.9387 2.25 14.625C2.25 15.165 2.115 15.7275 1.94625 16.245C1.60875 17.2125 1.125 18 1.125 18ZM5.0625 9C4.76413 9 4.47798 8.88147 4.267 8.67049C4.05603 8.45952 3.9375 8.17337 3.9375 7.875C3.9375 7.57663 4.05603 7.29048 4.267 7.07951C4.47798 6.86853 4.76413 6.75 5.0625 6.75C5.36087 6.75 5.64702 6.86853 5.85799 7.07951C6.06897 7.29048 6.1875 7.57663 6.1875 7.875C6.1875 8.17337 6.06897 8.45952 5.85799 8.67049C5.64702 8.88147 5.36087 9 5.0625 9ZM7.875 7.875C7.875 8.17337 7.99353 8.45952 8.20451 8.67049C8.41548 8.88147 8.70163 9 9 9C9.29837 9 9.58452 8.88147 9.79549 8.67049C10.0065 8.45952 10.125 8.17337 10.125 7.875C10.125 7.57663 10.0065 7.29048 9.79549 7.07951C9.58452 6.86853 9.29837 6.75 9 6.75C8.70163 6.75 8.41548 6.86853 8.20451 7.07951C7.99353 7.29048 7.875 7.57663 7.875 7.875ZM12.9375 9C12.6391 9 12.353 8.88147 12.142 8.67049C11.931 8.45952 11.8125 8.17337 11.8125 7.875C11.8125 7.57663 11.931 7.29048 12.142 7.07951C12.353 6.86853 12.6391 6.75 12.9375 6.75C13.2359 6.75 13.522 6.86853 13.733 7.07951C13.944 7.29048 14.0625 7.57663 14.0625 7.875C14.0625 8.17337 13.944 8.45952 13.733 8.67049C13.522 8.88147 13.2359 9 12.9375 9Z" fill="var(--fill-0, #171717)"/>
</g>
<defs>
<clipPath id="clip0_0_4">
<rect width="18" height="18" fill="white"/>
</clipPath>
</defs>
</svg>
