<svg preserveAspectRatio="none" width="100%" height="100%" overflow="visible" style="display: block;" viewBox="0 0 18 18" fill="none" xmlns="http://www.w3.org/2000/svg">
<g id="Icon" clip-path="url(#clip0_0_4)">
<path id="Vector" d="M9 0C11.3869 0 13.6761 0.948212 15.364 2.63604C17.0518 4.32387 18 6.61305 18 9C18 11.3869 17.0518 13.6761 15.364 15.364C13.6761 17.0518 11.3869 18 9 18C6.61305 18 4.32387 17.0518 2.63604 15.364C0.948212 13.6761 0 11.3869 0 9C0 6.61305 0.948212 4.32387 2.63604 2.63604C4.32387 0.948212 6.61305 0 9 0ZM9 1.6875C7.0606 1.6875 5.20064 2.45792 3.82928 3.82928C2.45792 5.20064 1.6875 7.0606 1.6875 9C1.6875 10.9394 2.45792 12.7994 3.82928 14.1707C5.20064 15.5421 7.0606 16.3125 9 16.3125C10.9394 16.3125 12.7994 15.5421 14.1707 14.1707C15.5421 12.7994 16.3125 10.9394 16.3125 9C16.3125 7.0606 15.5421 5.20064 14.1707 3.82928C12.7994 2.45792 10.9394 1.6875 9 1.6875ZM9.84375 8.5725L11.7562 10.0125L12.4313 10.5188L11.4187 11.8688L10.7438 11.3625L8.60625 9.75375C8.46653 9.64896 8.35313 9.51308 8.27502 9.35687C8.19691 9.20065 8.15625 9.0284 8.15625 8.85375V3.9375H9.84375V8.5725Z" fill="var(--fill-0, #171717)"/>
</g>
<defs>
<clipPath id="clip0_0_4">
<rect width="18" height="18" fill="white"/>
</clipPath>
</defs>
</svg>
