<svg preserveAspectRatio="none" width="100%" height="100%" overflow="visible" style="display: block;" viewBox="0 0 22.5 18" fill="none" xmlns="http://www.w3.org/2000/svg">
<g id="Icon" clip-path="url(#clip0_0_4)">
<path id="Vector" fill-rule="evenodd" clip-rule="evenodd" d="M19.6875 2.53125H2.8125C2.03625 2.53125 1.40625 3.16125 1.40625 3.9375V14.0625C1.40625 14.8387 2.03625 15.4688 2.8125 15.4688H19.6875C20.4637 15.4688 21.0938 14.8387 21.0938 14.0625V3.9375C21.0938 3.16125 20.4637 2.53125 19.6875 2.53125ZM2.8125 1.125C2.06658 1.125 1.35121 1.42132 0.823762 1.94876C0.296316 2.47621 0 3.19158 0 3.9375L0 14.0625C0 14.8084 0.296316 15.5238 0.823762 16.0512C1.35121 16.5787 2.06658 16.875 2.8125 16.875H19.6875C20.4334 16.875 21.1488 16.5787 21.6762 16.0512C22.2037 15.5238 22.5 14.8084 22.5 14.0625V3.9375C22.5 3.19158 22.2037 2.47621 21.6762 1.94876C21.1488 1.42132 20.4334 1.125 19.6875 1.125H2.8125ZM6.1875 9V7.59375C6.1875 7.43625 6.31125 7.3125 6.46875 7.3125H7.03125C7.18875 7.3125 7.3125 7.43625 7.3125 7.59375V9H6.1875ZM6.1875 10.6875V12.375H4.5V7.59375C4.5 6.5025 5.3775 5.625 6.46875 5.625H7.03125C8.1225 5.625 9 6.5025 9 7.59375V12.375H7.3125V10.6875H6.1875ZM12.0938 10.125V12.375H10.4062V5.625H12.9375C14.0288 5.625 14.9062 6.5025 14.9062 7.59375V8.15625C14.9062 9.2475 14.0288 10.125 12.9375 10.125H12.0938ZM12.0938 8.4375H12.9375C13.095 8.4375 13.2188 8.31375 13.2188 8.15625V7.59375C13.2188 7.51916 13.1891 7.44762 13.1364 7.39488C13.0836 7.34213 13.0121 7.3125 12.9375 7.3125H12.0938V8.4375ZM16.3125 12.375H18V5.625H16.3125V12.375Z" fill="var(--fill-0, #171717)"/>
</g>
<defs>
<clipPath id="clip0_0_4">
<rect width="22.5" height="18" fill="white"/>
</clipPath>
</defs>
</svg>
