<svg preserveAspectRatio="none" width="100%" height="100%" overflow="visible" style="display: block;" viewBox="0 0 16 16" fill="none" xmlns="http://www.w3.org/2000/svg">
<g id="Icon" clip-path="url(#clip0_0_4)">
<path id="Vector" d="M9.42 9.25C10.6335 9.24498 11.8226 9.59054 12.8444 10.2451C13.8663 10.8997 14.6773 11.8355 15.18 12.94L15.25 13.09V16.25H1.25V13.09L1.32 12.94C1.82273 11.8355 2.63375 10.8997 3.65556 10.2451C4.67737 9.59054 5.8665 9.24498 7.08 9.25H9.42ZM7.08 10.75C6.17954 10.7456 5.29599 10.9946 4.53031 11.4685C3.76463 11.9424 3.1477 12.6221 2.75 13.43V14.75H13.75V13.43C13.3523 12.6221 12.7354 11.9424 11.9697 11.4685C11.204 10.9946 10.3205 10.7456 9.42 10.75H7.08ZM8.25 0C10.05 0 11.5 1.46 11.5 3.25V3.75C11.5 5.55 10.04 7 8.25 7H7.75C6.88805 7 6.0614 6.65759 5.4519 6.0481C4.84241 5.4386 4.5 4.61195 4.5 3.75V3.25C4.5 1.45 5.96 0 7.75 0H8.25ZM7.75 1.5C6.78 1.5 6 2.28 6 3.25V3.75C6 4.72 6.78 5.5 7.75 5.5H8.25C9.22 5.5 10 4.72 10 3.75V3.25C10 2.28 9.22 1.5 8.25 1.5H7.75Z" fill="var(--fill-0, #171717)"/>
</g>
<defs>
<clipPath id="clip0_0_4">
<rect width="16" height="16" fill="white"/>
</clipPath>
</defs>
</svg>
