<svg preserveAspectRatio="none" width="100%" height="100%" overflow="visible" style="display: block;" viewBox="0 0 16 16" fill="none" xmlns="http://www.w3.org/2000/svg">
<g id="Icon" clip-path="url(#clip0_0_4)">
<path id="Vector" d="M5.75 7L6.42 7.34L4.85 10.47C5.39 10.77 5.75 11.34 5.75 12V14C5.75 14.97 4.97 15.75 4 15.75H2C1.03 15.75 0.25 14.97 0.25 14V12C0.25 11.03 1.03 10.25 2 10.25H3.29L5.08 6.67L5.75 7ZM14 10.25C14.97 10.25 15.75 11.03 15.75 12V14C15.75 14.97 14.97 15.75 14 15.75H12C11.12 15.75 10.4 15.1 10.27 14.25H7V12.75H10.25V12C10.25 11.03 11.03 10.25 12 10.25H14ZM2 11.75C1.9337 11.75 1.87011 11.7763 1.82322 11.8232C1.77634 11.8701 1.75 11.9337 1.75 12V14C1.75 14.14 1.86 14.25 2 14.25H4C4.14 14.25 4.25 14.14 4.25 14V12C4.25 11.9337 4.22366 11.8701 4.17678 11.8232C4.12989 11.7763 4.0663 11.75 4 11.75H2ZM12 11.75C11.9337 11.75 11.8701 11.7763 11.8232 11.8232C11.7763 11.8701 11.75 11.9337 11.75 12V14C11.7633 14.1533 11.8467 14.2367 12 14.25H14C14.1533 14.2367 14.2367 14.1533 14.25 14V12C14.25 11.9337 14.2237 11.8701 14.1768 11.8232C14.1299 11.7763 14.0663 11.75 14 11.75H12ZM9 0.25C9.97 0.25 10.75 1.03 10.75 2V4C10.7367 4.46 10.59 4.84667 10.31 5.16L12.21 8.64L10.89 9.36L8.92 5.75H7C6.03 5.75 5.25 4.97 5.25 4V2C5.25 1.03 6.03 0.25 7 0.25H9ZM7 1.75C6.9337 1.75 6.87011 1.77634 6.82322 1.82322C6.77634 1.87011 6.75 1.9337 6.75 2V4C6.75 4.14 6.86 4.25 7 4.25H9C9.14 4.25 9.25 4.14 9.25 4V2C9.25 1.9337 9.22366 1.87011 9.17678 1.82322C9.12989 1.77634 9.0663 1.75 9 1.75H7Z" fill="var(--fill-0, #171717)"/>
</g>
<defs>
<clipPath id="clip0_0_4">
<rect width="16" height="16" fill="white"/>
</clipPath>
</defs>
</svg>
