<svg preserveAspectRatio="none" width="100%" height="100%" overflow="visible" style="display: block;" viewBox="0 0 16 16" fill="none" xmlns="http://www.w3.org/2000/svg">
<g id="Icon" clip-path="url(#clip0_0_4)">
<path id="Vector" fill-rule="evenodd" clip-rule="evenodd" d="M8.75 2.8C9.03596 2.6349 9.25946 2.38005 9.38582 2.07499C9.51218 1.76992 9.53435 1.43168 9.44889 1.11273C9.36343 0.793783 9.17511 0.511946 8.91314 0.310932C8.65118 0.109918 8.3302 0.000961894 8 0.000961894C7.6698 0.000961894 7.34882 0.109918 7.08686 0.310932C6.82489 0.511946 6.63657 0.793783 6.55111 1.11273C6.46565 1.43168 6.48782 1.76992 6.61418 2.07499C6.74054 2.38005 6.96404 2.6349 7.25 2.8V5H7C5.5814 4.99907 4.20836 5.50081 3.12459 6.41616C2.04082 7.3315 1.31643 8.60124 1.08 10H0V13H1V16H15V13H16V10H14.92C14.6836 8.60124 13.9592 7.3315 12.8754 6.41616C11.7916 5.50081 10.4186 4.99907 9 5H8.75V2.8ZM7 6.5C5.80653 6.5 4.66193 6.97411 3.81802 7.81802C2.97411 8.66193 2.5 9.80653 2.5 11V14.5H13.5V11C13.5 9.80653 13.0259 8.66193 12.182 7.81802C11.3381 6.97411 10.1935 6.5 9 6.5H7ZM7.25 11.25C7.25 11.4798 7.20474 11.7074 7.11679 11.9197C7.02884 12.132 6.89994 12.3249 6.73744 12.4874C6.57493 12.6499 6.38202 12.7788 6.1697 12.8668C5.95738 12.9547 5.72981 13 5.5 13C5.27019 13 5.04262 12.9547 4.8303 12.8668C4.61798 12.7788 4.42507 12.6499 4.26256 12.4874C4.10006 12.3249 3.97116 12.132 3.88321 11.9197C3.79527 11.7074 3.75 11.4798 3.75 11.25C3.75 10.7859 3.93437 10.3408 4.26256 10.0126C4.59075 9.68437 5.03587 9.5 5.5 9.5C5.96413 9.5 6.40925 9.68437 6.73744 10.0126C7.06563 10.3408 7.25 10.7859 7.25 11.25ZM10.5 13C10.9641 13 11.4092 12.8156 11.7374 12.4874C12.0656 12.1592 12.25 11.7141 12.25 11.25C12.25 10.7859 12.0656 10.3408 11.7374 10.0126C11.4092 9.68437 10.9641 9.5 10.5 9.5C10.0359 9.5 9.59075 9.68437 9.26256 10.0126C8.93437 10.3408 8.75 10.7859 8.75 11.25C8.75 11.7141 8.93437 12.1592 9.26256 12.4874C9.59075 12.8156 10.0359 13 10.5 13Z" fill="var(--fill-0, #171717)"/>
</g>
<defs>
<clipPath id="clip0_0_4">
<rect width="16" height="16" fill="white"/>
</clipPath>
</defs>
</svg>
