<svg preserveAspectRatio="none" width="100%" height="100%" viewBox="0 0 622 195" fill="none" xmlns="http://www.w3.org/2000/svg">
<path fill="none" d="M37.5996 135.9H108V161.5H12V33.5H37.5996V135.9Z" stroke="white" stroke-width="1.55"/>
<path fill="none" d="M220 161.5H124V135.9H220V161.5Z" stroke="white" stroke-width="1.55"/>
<path fill="none" d="M261.6 161.5H236V33.5H261.6V161.5Z" stroke="white" stroke-width="1.55"/>
<path fill="none" d="M356 128.586V33.5H381.6V161.5H350.4L266.4 33.5H293.6L356 128.586Z" stroke="white" stroke-width="1.55"/>
<path fill="none" d="M500 59.0996H429.6V84.7002H500V161.5H404V135.9H474.4V110.3H404V33.5H500V59.0996Z" stroke="white" stroke-width="1.55"/>
<path fill="none" d="M204 110.3H124V84.7002H204V110.3Z" stroke="white" stroke-width="1.55"/>
<path fill="none" d="M220 59.0996H124V33.5H220V59.0996Z" stroke="white" stroke-width="1.55"/>
<path fill="none" fill-rule="evenodd" clip-rule="evenodd" d="M612 161.5H516V33.5H612V161.5ZM541.6 59.0996V135.9H586.4V59.0996H541.6Z" stroke="white" stroke-width="1.55"/>
</svg>
