<svg preserveAspectRatio="none" width="100%" height="100%" overflow="visible" style="display: block;" viewBox="0 0 74.875 16" fill="none" xmlns="http://www.w3.org/2000/svg">
<g id="Group">
<path id="Vector" d="M3.19467 0H0V16H3.19467V0Z" fill="var(--fill-0, #171717)"/>
<path id="Vector_2" d="M11.98 12.8H0V16H11.98V12.8Z" fill="var(--fill-0, #171717)"/>
<path id="Vector_3" d="M25.9567 0H13.9767V3.2H25.9567V0Z" fill="var(--fill-0, #171717)"/>
<path id="Vector_4" d="M23.96 6.4H13.9767V9.6H23.96V6.4Z" fill="var(--fill-0, #171717)"/>
<path id="Vector_5" d="M25.9567 12.8H13.9767V16H25.9567V12.8Z" fill="var(--fill-0, #171717)"/>
<path id="Vector_6" d="M31.148 0H27.9533V16H31.148V0Z" fill="var(--fill-0, #171717)"/>
<path id="Vector_7" d="M31.747 0H35.1413L45.6238 16H42.2295L31.747 0Z" fill="var(--fill-0, #171717)"/>
<path id="Vector_8" d="M46.123 0H42.9283V16H46.123V0Z" fill="var(--fill-0, #171717)"/>
<path id="Vector_9" d="M60.8983 0H48.9183V3.2H60.8983V0Z" fill="var(--fill-0, #171717)"/>
<path id="Vector_10" d="M60.8983 6.4H48.9183V9.6H60.8983V6.4Z" fill="var(--fill-0, #171717)"/>
<path id="Vector_11" d="M60.8983 12.8H48.9183V16H60.8983V12.8Z" fill="var(--fill-0, #171717)"/>
<path id="Vector_12" d="M52.113 0H48.9183V9.6H52.113V0Z" fill="var(--fill-0, #171717)"/>
<path id="Vector_13" d="M60.8983 6.4H57.7037V16H60.8983V6.4Z" fill="var(--fill-0, #171717)"/>
<path id="Vector_14" d="M74.875 0H62.895V3.2H74.875V0Z" fill="var(--fill-0, #171717)"/>
<path id="Vector_15" d="M74.875 12.8H62.895V16H74.875V12.8Z" fill="var(--fill-0, #171717)"/>
<path id="Vector_16" d="M66.0897 3.2H62.895V12.8H66.0897V3.2Z" fill="var(--fill-0, #171717)"/>
<path id="Vector_17" d="M74.875 3.2H71.6803V12.8H74.875V3.2Z" fill="var(--fill-0, #171717)"/>
</g>
</svg>
