<svg preserveAspectRatio="none" width="100%" height="100%" overflow="visible" style="display: block;" viewBox="0 0 16 16" fill="none" xmlns="http://www.w3.org/2000/svg">
<g id="Icon" clip-path="url(#clip0_0_4)">
<path id="Vector" fill-rule="evenodd" clip-rule="evenodd" d="M4.25 1.5C3.44096 1.49947 2.64858 1.72988 1.96597 2.16415C1.28336 2.59842 0.738884 3.2185 0.396523 3.95153C0.0541622 4.68456 -0.0718579 5.50008 0.0332714 6.30226C0.138401 7.10444 0.470311 7.85994 0.99 8.48L2.14 7.52C1.80316 7.11947 1.5876 6.63114 1.51864 6.11237C1.44968 5.59359 1.53018 5.06591 1.75068 4.59129C1.97119 4.11667 2.32255 3.71483 2.7635 3.43296C3.20444 3.15109 3.71666 3.00089 4.24 3H8.5C9.22935 3 9.92882 3.28973 10.4445 3.80546C10.9603 4.32118 11.25 5.02065 11.25 5.75C11.25 6.47935 10.9603 7.17882 10.4445 7.69454C9.92882 8.21027 9.22935 8.5 8.5 8.5V10C9.62717 10 10.7082 9.55223 11.5052 8.7552C12.3022 7.95817 12.75 6.87717 12.75 5.75C12.75 4.62283 12.3022 3.54183 11.5052 2.7448C10.7082 1.94777 9.62717 1.5 8.5 1.5H4.25ZM11.75 13H7.5C6.77065 13 6.07118 12.7103 5.55546 12.1945C5.03973 11.6788 4.75 10.9793 4.75 10.25C4.75 9.52065 5.03973 8.82118 5.55546 8.30546C6.07118 7.78973 6.77065 7.5 7.5 7.5V6C6.37283 6 5.29183 6.44777 4.4948 7.2448C3.69777 8.04183 3.25 9.12283 3.25 10.25C3.25 11.3772 3.69777 12.4582 4.4948 13.2552C5.29183 14.0522 6.37283 14.5 7.5 14.5H11.75C12.559 14.5005 13.3514 14.2701 14.034 13.8359C14.7166 13.4016 15.2611 12.7815 15.6035 12.0485C15.9458 11.3154 16.0719 10.4999 15.9667 9.69774C15.8616 8.89556 15.5297 8.14005 15.01 7.52L13.86 8.48C14.1968 8.88053 14.4124 9.36886 14.4814 9.88763C14.5503 10.4064 14.4698 10.9341 14.2493 11.4087C14.0288 11.8833 13.6774 12.2852 13.2365 12.567C12.7956 12.8489 12.2833 12.9991 11.76 13" fill="var(--fill-0, #171717)"/>
</g>
<defs>
<clipPath id="clip0_0_4">
<rect width="16" height="16" fill="white"/>
</clipPath>
</defs>
</svg>
