<svg preserveAspectRatio="none" width="100%" height="100%" overflow="visible" style="display: block;" viewBox="0 0 16 16" fill="none" xmlns="http://www.w3.org/2000/svg">
<g id="Icon" clip-path="url(#clip0_0_4)">
<path id="Vector" d="M14.5 2.25C14.5 2.05109 14.421 1.86032 14.2803 1.71967C14.1397 1.57902 13.9489 1.5 13.75 1.5H10.5V0H13.75C14.99 0 16 1 16 2.25V5.5H14.5V2.25ZM0 2.25C0 1.01 1 0 2.25 0H5.5V1.5H2.25C2.05109 1.5 1.86032 1.57902 1.71967 1.71967C1.57902 1.86032 1.5 2.05109 1.5 2.25V5.5H0V2.25ZM2.94 10.25L5.19 8L2.94 5.75L4 4.69L6.6 7.29C6.69373 7.38296 6.76812 7.49356 6.81889 7.61542C6.86966 7.73728 6.8958 7.86799 6.8958 8C6.8958 8.13201 6.86966 8.26272 6.81889 8.38458C6.76812 8.50644 6.69373 8.61704 6.6 8.71L4 11.3L2.94 10.25ZM7.87 9.63H12.5V11.13H7.87V9.63ZM10.5 14.5H13.75C14.16 14.5 14.5 14.16 14.5 13.75V10.5H16V13.75C16 14.99 15 16 13.75 16H10.5V14.5ZM2.25 16C1.01 16 0 15 0 13.75V10.5H1.5V13.75C1.5 14.16 1.84 14.5 2.25 14.5H5.5V16H2.25Z" fill="var(--fill-0, #171717)"/>
</g>
<defs>
<clipPath id="clip0_0_4">
<rect width="16" height="16" fill="white"/>
</clipPath>
</defs>
</svg>
