<svg preserveAspectRatio="none" width="100%" height="100%" overflow="visible" style="display: block;" viewBox="0 0 16 12.3401" fill="none" xmlns="http://www.w3.org/2000/svg">
<g id="Group">
<path id="Vector" d="M3.23 8.64C3.49 8.64 3.69 8.84 3.69 9.1V11.88C3.69 12.14 3.49 12.34 3.23 12.34H0.46C0.399592 12.34 0.339775 12.3281 0.283966 12.305C0.228156 12.2819 0.177446 12.248 0.134731 12.2053C0.0920159 12.1626 0.0581326 12.1118 0.0350154 12.056C0.0118983 12.0002 0 11.9404 0 11.88L0 9.1C0 8.85 0.2 8.64 0.46 8.64H3.23ZM6.3 4.32C6.56 4.32 6.77 4.52 6.77 4.78V7.88C6.78 8.3 7.12 8.64 7.53 8.64H9.38C9.64 8.64 9.85 8.84 9.85 9.1V11.88C9.85 12.14 9.64 12.34 9.38 12.34H6.62C6.55876 12.3413 6.49786 12.3304 6.44089 12.3079C6.38392 12.2854 6.33203 12.2517 6.28825 12.2089C6.24447 12.166 6.20969 12.1148 6.18595 12.0584C6.16221 12.0019 6.14999 11.9413 6.15 11.88V8.78C6.14748 8.58094 6.06796 8.39059 5.92813 8.24889C5.78829 8.10719 5.59901 8.02515 5.4 8.02H3.54C3.418 8.02 3.301 7.97154 3.21473 7.88527C3.12846 7.799 3.08 7.682 3.08 7.56V4.78C3.08 4.53 3.28 4.32 3.54 4.32H6.3ZM9.38 0C9.64 0 9.85 0.2 9.85 0.46V3.56C9.85 3.99 10.2 4.32 10.62 4.32H12.46C12.72 4.32 12.92 4.52 12.92 4.78V7.88C12.93 8.3 13.27 8.64 13.69 8.64H15.54C15.79 8.64 16 8.84 16 9.1V11.88C16 12.14 15.8 12.34 15.54 12.34H12.77C12.7096 12.34 12.6498 12.3281 12.594 12.305C12.5382 12.2819 12.4874 12.248 12.4447 12.2053C12.402 12.1626 12.3681 12.1118 12.345 12.056C12.3219 12.0002 12.31 11.9404 12.31 11.88V8.78C12.3075 8.58094 12.228 8.39059 12.0881 8.24889C11.9483 8.10719 11.759 8.02515 11.56 8.02H9.69C9.568 8.02 9.451 7.97154 9.36473 7.88527C9.27846 7.799 9.23 7.682 9.23 7.56V4.46C9.22748 4.26094 9.14796 4.07059 9.00813 3.92889C8.86829 3.78719 8.67901 3.70515 8.48 3.7H6.62C6.55876 3.70133 6.49786 3.69042 6.44089 3.6679C6.38392 3.64538 6.33203 3.6117 6.28825 3.56886C6.24447 3.52601 6.20969 3.47485 6.18595 3.41838C6.16221 3.3619 6.14999 3.30126 6.15 3.24V0.46C6.15 0.21 6.36 0 6.62 0H9.38Z" fill="var(--fill-0, #171717)"/>
</g>
</svg>
