<svg preserveAspectRatio="none" width="100%" height="100%" overflow="visible" style="display: block;" viewBox="0 0 16 16" fill="none" xmlns="http://www.w3.org/2000/svg">
<g id="Icon" clip-path="url(#clip0_0_4)">
<path id="Vector" fill-rule="evenodd" clip-rule="evenodd" d="M2.5 0.5V0H3.5V0.5C3.5 1.6 4.4 2.5 5.5 2.5H6V3.5H5.5C4.96957 3.5 4.46086 3.71071 4.08579 4.08579C3.71071 4.46086 3.5 4.96957 3.5 5.5V6H2.5V5.5C2.5 4.96957 2.28929 4.46086 1.91421 4.08579C1.53914 3.71071 1.03043 3.5 0.5 3.5H0V2.5H0.5C1.03043 2.5 1.53914 2.28929 1.91421 1.91421C2.28929 1.53914 2.5 1.03043 2.5 0.5ZM14.5 4.5V5H13.5V4.5C13.5 4.23478 13.3946 3.98043 13.2071 3.79289C13.0196 3.60536 12.7652 3.5 12.5 3.5H12V2.5H12.5C12.7652 2.5 13.0196 2.39464 13.2071 2.20711C13.3946 2.01957 13.5 1.76522 13.5 1.5V1H14.5V1.5C14.5 1.76522 14.6054 2.01957 14.7929 2.20711C14.9804 2.39464 15.2348 2.5 15.5 2.5H16V3.5H15.5C15.2348 3.5 14.9804 3.60536 14.7929 3.79289C14.6054 3.98043 14.5 4.23478 14.5 4.5ZM8.5 4L8.4 4.93C8.28418 6.0744 7.77734 7.14387 6.9649 7.95812C6.15247 8.77238 5.08414 9.28162 3.94 9.4L3 9.5V10.5L3.93 10.6C5.07772 10.714 6.15073 11.2214 6.9672 12.036C7.78367 12.8507 8.29339 13.9225 8.41 15.07L8.5 16H9.5L9.6 15.07C9.71404 13.9223 10.2214 12.8493 11.036 12.0328C11.8507 11.2163 12.9225 10.7066 14.07 10.59L15 10.5V9.5L14.07 9.4C12.9256 9.28418 11.8561 8.77734 11.0419 7.9649C10.2276 7.15247 9.71838 6.08414 9.6 4.94L9.5 4H8.5Z" fill="var(--fill-0, #171717)"/>
</g>
<defs>
<clipPath id="clip0_0_4">
<rect width="16" height="16" fill="white"/>
</clipPath>
</defs>
</svg>
