<svg preserveAspectRatio="none" width="100%" height="100%" overflow="visible" style="display: block;" viewBox="0 0 18 18" fill="none" xmlns="http://www.w3.org/2000/svg">
<g id="Icon" clip-path="url(#clip0_0_4)">
<path id="Vector" d="M16.3125 2.53125C16.3125 2.30747 16.2236 2.09286 16.0654 1.93463C15.9071 1.77639 15.6925 1.6875 15.4688 1.6875H11.8125V0H15.4688C16.8638 0 18 1.125 18 2.53125V6.1875H16.3125V2.53125ZM0 2.53125C0 1.13625 1.125 0 2.53125 0H6.1875V1.6875H2.53125C2.30747 1.6875 2.09286 1.77639 1.93463 1.93463C1.77639 2.09286 1.6875 2.30747 1.6875 2.53125V6.1875H0V2.53125ZM3.3075 11.5312L5.83875 9L3.3075 6.46875L4.5 5.27625L7.425 8.20125C7.53044 8.30583 7.61414 8.43026 7.67125 8.56735C7.72837 8.70444 7.75777 8.85149 7.75777 9C7.75777 9.14851 7.72837 9.29556 7.67125 9.43265C7.61414 9.56974 7.53044 9.69417 7.425 9.79875L4.5 12.7125L3.3075 11.5312ZM8.85375 10.8338H14.0625V12.5213H8.85375V10.8338ZM11.8125 16.3125H15.4688C15.93 16.3125 16.3125 15.93 16.3125 15.4688V11.8125H18V15.4688C18 16.8638 16.875 18 15.4688 18H11.8125V16.3125ZM2.53125 18C1.13625 18 0 16.875 0 15.4688V11.8125H1.6875V15.4688C1.6875 15.93 2.07 16.3125 2.53125 16.3125H6.1875V18H2.53125Z" fill="var(--fill-0, #171717)"/>
</g>
<defs>
<clipPath id="clip0_0_4">
<rect width="18" height="18" fill="white"/>
</clipPath>
</defs>
</svg>
