<svg preserveAspectRatio="none" width="100%" height="100%" overflow="visible" style="display: block;" viewBox="0 0 18 18" fill="none" xmlns="http://www.w3.org/2000/svg">
<g id="Icon" clip-path="url(#clip0_0_4)">
<path id="Vector" fill-rule="evenodd" clip-rule="evenodd" d="M2.8125 0.5625V0H3.9375V0.5625C3.9375 1.8 4.95 2.8125 6.1875 2.8125H6.75V3.9375H6.1875C5.59076 3.9375 5.01847 4.17455 4.59651 4.59651C4.17455 5.01847 3.9375 5.59076 3.9375 6.1875V6.75H2.8125V6.1875C2.8125 5.59076 2.57545 5.01847 2.15349 4.59651C1.73153 4.17455 1.15924 3.9375 0.5625 3.9375H0V2.8125H0.5625C1.15924 2.8125 1.73153 2.57545 2.15349 2.15349C2.57545 1.73153 2.8125 1.15924 2.8125 0.5625ZM16.3125 5.0625V5.625H15.1875V5.0625C15.1875 4.76413 15.069 4.47798 14.858 4.267C14.647 4.05603 14.3609 3.9375 14.0625 3.9375H13.5V2.8125H14.0625C14.3609 2.8125 14.647 2.69397 14.858 2.483C15.069 2.27202 15.1875 1.98587 15.1875 1.6875V1.125H16.3125V1.6875C16.3125 1.98587 16.431 2.27202 16.642 2.483C16.853 2.69397 17.1391 2.8125 17.4375 2.8125H18V3.9375H17.4375C17.1391 3.9375 16.853 4.05603 16.642 4.267C16.431 4.47798 16.3125 4.76413 16.3125 5.0625ZM9.5625 4.5L9.45 5.54625C9.3197 6.8337 8.7495 8.03685 7.83551 8.95289C6.92153 9.86893 5.71965 10.4418 4.4325 10.575L3.375 10.6875V11.8125L4.42125 11.925C5.71244 12.0533 6.91957 12.624 7.8381 13.5405C8.75663 14.457 9.33007 15.6628 9.46125 16.9537L9.5625 18H10.6875L10.8 16.9537C10.9283 15.6626 11.499 14.4554 12.4155 13.5369C13.332 12.6184 14.5378 12.0449 15.8287 11.9138L16.875 11.8125V10.6875L15.8287 10.575C14.5413 10.4447 13.3381 9.8745 12.4221 8.96051C11.5061 8.04653 10.9332 6.84465 10.8 5.5575L10.6875 4.5H9.5625Z" fill="var(--fill-0, #171717)"/>
</g>
<defs>
<clipPath id="clip0_0_4">
<rect width="18" height="18" fill="white"/>
</clipPath>
</defs>
</svg>
