<svg preserveAspectRatio="none" width="100%" height="100%" overflow="visible" style="display: block;" viewBox="0 0 18 18" fill="none" xmlns="http://www.w3.org/2000/svg">
<g id="Icon" clip-path="url(#clip0_0_4)">
<path id="Vector" fill-rule="evenodd" clip-rule="evenodd" d="M3.2625 11.7L3.3525 11.9588C3.92907 13.1547 4.08753 14.5095 3.8025 15.8063C4.75196 15.4689 5.63803 14.9745 6.42375 14.3438L6.9975 13.86L7.75125 13.9725C8.15625 14.0325 8.5725 14.0625 9 14.0625C13.2525 14.0625 16.3125 11.0925 16.3125 7.875C16.3125 4.6575 13.2525 1.6875 9 1.6875C4.7475 1.6875 1.6875 4.6575 1.6875 7.875C1.6875 9.2025 2.1825 10.4625 3.07125 11.4975L3.2625 11.7ZM3.16125 17.7413C2.49302 17.8963 1.81076 17.983 1.125 18C1.125 18 1.60875 17.2237 1.94625 16.245C2.115 15.7275 2.25 15.165 2.25 14.625C2.25 13.9275 2.025 13.1962 1.8 12.5887C0.651055 11.2861 0.0117704 9.61193 0 7.875C0 3.52125 4.0275 0 9 0C13.9725 0 18 3.52125 18 7.875C18 12.2287 13.9725 15.75 9 15.75C8.49 15.75 7.99125 15.7125 7.50375 15.6375C6.2545 16.6902 4.76163 17.4134 3.16125 17.7413Z" fill="var(--fill-0, #171717)"/>
</g>
<defs>
<clipPath id="clip0_0_4">
<rect width="18" height="18" fill="white"/>
</clipPath>
</defs>
</svg>
