<svg preserveAspectRatio="none" width="100%" height="100%" overflow="visible" style="display: block;" viewBox="0 0 18 18" fill="none" xmlns="http://www.w3.org/2000/svg">
<g id="Icon" clip-path="url(#clip0_0_4)">
<path id="Vector" fill-rule="evenodd" clip-rule="evenodd" d="M4.78125 1.6875C3.87108 1.68691 2.97965 1.94612 2.21172 2.43467C1.44378 2.92322 0.831244 3.62081 0.446088 4.44547C0.0609325 5.27013 -0.0808402 6.18759 0.0374303 7.09004C0.155701 7.99249 0.5291 8.84244 1.11375 9.54L2.4075 8.46C2.02855 8.00941 1.78605 7.46004 1.70847 6.87641C1.63089 6.29279 1.72145 5.69915 1.96952 5.1652C2.21759 4.63126 2.61287 4.17919 3.10893 3.86208C3.605 3.54497 4.18124 3.376 4.77 3.375H9.5625C10.383 3.375 11.1699 3.70095 11.7501 4.28114C12.3303 4.86133 12.6563 5.64824 12.6563 6.46875C12.6563 7.28926 12.3303 8.07617 11.7501 8.65636C11.1699 9.23655 10.383 9.5625 9.5625 9.5625V11.25C10.8306 11.25 12.0467 10.7463 12.9434 9.8496C13.84 8.95295 14.3438 7.73682 14.3438 6.46875C14.3438 5.20068 13.84 3.98455 12.9434 3.0879C12.0467 2.19124 10.8306 1.6875 9.5625 1.6875H4.78125ZM13.2188 14.625H8.4375C7.61699 14.625 6.83008 14.2991 6.24989 13.7189C5.6697 13.1387 5.34375 12.3518 5.34375 11.5312C5.34375 10.7107 5.6697 9.92383 6.24989 9.34364C6.83008 8.76345 7.61699 8.4375 8.4375 8.4375V6.75C7.16943 6.75 5.9533 7.25374 5.05665 8.1504C4.15999 9.04705 3.65625 10.2632 3.65625 11.5312C3.65625 12.7993 4.15999 14.0154 5.05665 14.9121C5.9533 15.8088 7.16943 16.3125 8.4375 16.3125H13.2188C14.1289 16.3131 15.0203 16.0539 15.7883 15.5653C16.5562 15.0768 17.1688 14.3792 17.5539 13.5545C17.9391 12.7299 18.0808 11.8124 17.9626 10.91C17.8443 10.0075 17.4709 9.15756 16.8863 8.46L15.5925 9.54C15.9714 9.99059 16.214 10.54 16.2915 11.1236C16.3691 11.7072 16.2786 12.3009 16.0305 12.8348C15.7824 13.3687 15.3871 13.8208 14.8911 14.1379C14.395 14.455 13.8188 14.624 13.23 14.625" fill="var(--fill-0, #171717)"/>
</g>
<defs>
<clipPath id="clip0_0_4">
<rect width="18" height="18" fill="white"/>
</clipPath>
</defs>
</svg>
