<svg preserveAspectRatio="none" width="100%" height="100%" overflow="visible" style="display: block;" viewBox="0 0 18 18" fill="none" xmlns="http://www.w3.org/2000/svg">
<g id="Icon" clip-path="url(#clip0_0_4)">
<path id="Vector" d="M14.4 1.395L14.9962 1.99125L15.8175 1.17L14.7825 0.64125L14.4 1.395ZM7.4025 7.83L7.99875 8.42625L8.40375 8.02125L8.17875 7.50375L7.4025 7.83ZM10.2375 10.62L10.5525 9.8325L10.035 9.63L9.64125 10.0237L10.2375 10.62ZM16.6275 3.6675L17.3925 3.285L16.8637 2.23875L16.0313 3.06L16.6275 3.6675ZM13.7925 0.7875L10.62 3.99375L11.8125 5.18625L15.0075 1.99125L13.7925 0.7875ZM12.0938 1.67625C12.7988 1.68375 13.4362 1.8375 14.0062 2.1375L14.7825 0.63C13.9525 0.199839 13.0284 -0.0166857 12.0938 0V1.67625ZM7.875 5.90625C7.875 4.78737 8.31947 3.71431 9.11064 2.92314C9.90181 2.13197 10.9749 1.6875 12.0938 1.6875V0C10.5273 0 9.02504 0.622264 7.9174 1.7299C6.80976 2.83754 6.1875 4.33982 6.1875 5.90625H7.875ZM8.19 7.50375C7.98873 6.99483 7.88199 6.45347 7.875 5.90625H6.1875C6.1875 6.70125 6.33375 7.4475 6.62625 8.145L8.19 7.50375ZM6.80625 7.23375L1.09125 12.9375L2.28375 14.13L7.99875 8.415L6.80625 7.23375ZM1.09125 12.9375C0.825938 13.1992 0.615265 13.5109 0.471471 13.8547C0.327678 14.1985 0.25363 14.5674 0.25363 14.94C0.25363 15.3126 0.327678 15.6815 0.471471 16.0253C0.615265 16.3691 0.825938 16.6808 1.09125 16.9425L2.28375 15.75C1.83375 15.3 1.83375 14.58 2.28375 14.13L1.09125 12.9375ZM1.09125 16.9425C2.19375 18.045 3.99375 18.045 5.09625 16.9425L3.90375 15.75C3.45375 16.2 2.73375 16.2 2.28375 15.75L1.09125 16.9425ZM5.09625 16.9425L10.8338 11.205L9.64125 10.0125L3.90375 15.75L5.09625 16.9425ZM12.0938 10.125C11.5388 10.1175 11.025 10.02 10.5525 9.8325L9.93375 11.4075C10.6088 11.67 11.3288 11.805 12.0938 11.8125V10.125ZM16.3125 5.90625C16.3125 7.02513 15.868 8.09819 15.0769 8.88936C14.2857 9.68053 13.2126 10.125 12.0938 10.125V11.8125C15.3563 11.8125 18 9.16875 18 5.90625H16.3125ZM15.8737 4.03875C16.1587 4.60125 16.305 5.22375 16.3125 5.90625H18C17.9925 4.96125 17.79 4.0875 17.3925 3.285L15.8737 4.03875ZM14.0625 7.425L17.2462 4.2525L16.0425 3.04875L12.87 6.2325L14.0625 7.425ZM11.2725 7.425C12.0488 8.20125 13.2975 8.20125 14.0625 7.425L12.87 6.2325C12.7575 6.345 12.5775 6.345 12.465 6.2325L11.2725 7.425ZM10.62 6.7725L11.2725 7.425L12.465 6.2325L11.8125 5.58L10.62 6.7725ZM10.62 3.9825C9.84375 4.75875 9.84375 6.0075 10.62 6.7725L11.8125 5.58C11.7853 5.55376 11.7636 5.52231 11.7488 5.48752C11.7341 5.45272 11.7264 5.41531 11.7264 5.3775C11.7264 5.33969 11.7341 5.30228 11.7488 5.26748C11.7636 5.23269 11.7853 5.20124 11.8125 5.175L10.62 3.9825Z" fill="var(--fill-0, #171717)"/>
</g>
<defs>
<clipPath id="clip0_0_4">
<rect width="18" height="18" fill="white"/>
</clipPath>
</defs>
</svg>
