<svg preserveAspectRatio="none" width="100%" height="100%" overflow="visible" style="display: block;" viewBox="0 0 11.5014 11.5061" fill="none" xmlns="http://www.w3.org/2000/svg">
<path id="Vector" d="M4.05135 1.05L4.75135 1.3C4.47357 2.06065 4.41889 2.88483 4.59374 3.67551C4.76858 4.46619 5.16568 5.19047 5.73828 5.76307C6.31089 6.33567 7.03516 6.73277 7.82584 6.90762C8.61652 7.08246 9.4407 7.02778 10.2014 6.75L11.1614 7.71L11.0814 7.91C10.7222 8.79889 10.1466 9.58389 9.40672 10.1936C8.66686 10.8033 7.78631 11.2183 6.84516 11.4009C5.90402 11.5835 4.93215 11.5278 4.01798 11.2391C3.10381 10.9503 2.27636 10.4375 1.6109 9.74741C0.945431 9.05729 0.46308 8.21175 0.207724 7.28768C-0.0476325 6.36362 -0.0678883 5.39038 0.148799 4.45649C0.365486 3.52261 0.812239 2.65772 1.44841 1.94052C2.08459 1.22332 2.88999 0.676564 3.79135 0.35L4.05135 1.05ZM3.00135 2.51C2.59468 2.90097 2.27011 3.36916 2.04666 3.88715C1.82321 4.40513 1.70537 4.96251 1.70005 5.52661C1.69473 6.09071 1.80203 6.65021 2.01568 7.17232C2.22932 7.69443 2.545 8.16866 2.94423 8.56723C3.34346 8.96579 3.81822 9.28068 4.34068 9.49345C4.86315 9.70622 5.42282 9.81259 5.98692 9.80633C6.55101 9.80007 7.10819 9.68131 7.6258 9.45699C8.14342 9.23268 8.61107 8.90733 9.00135 8.5H8.75135C7.97475 8.50073 7.20604 8.34414 6.49161 8.03967C5.77717 7.7352 5.13182 7.28916 4.59448 6.72846C4.05715 6.16776 3.63896 5.50402 3.36515 4.77728C3.09134 4.05054 2.96759 3.27587 3.00135 2.5M10.2514 1.25H11.5014V2.75H10.2514V4H8.75135V2.75H7.50135V1.25H8.75135V0H10.2514V1.25ZM4.75135 1.3L4.05135 1.05L3.79135 0.35L4.75135 1.3Z" fill="var(--fill-0, #8F8F8F)"/>
</svg>
