<svg preserveAspectRatio="none" width="100%" height="100%" overflow="visible" style="display: block;" viewBox="0 0 11 12" fill="none" xmlns="http://www.w3.org/2000/svg">
<path id="Vector" fill-rule="evenodd" clip-rule="evenodd" d="M0 3.25C0 1.45 1.46 0 3.25 0H7.75C9.55 0 11 1.46 11 3.25V12H0V3.25ZM3.25 1.5C2.28 1.5 1.5 2.28 1.5 3.25V10.5H9.5V3.25C9.5 2.28 8.72 1.5 7.75 1.5H3.25ZM2.5 3.5C2.5 3.23478 2.60536 2.98043 2.79289 2.79289C2.98043 2.60536 3.23478 2.5 3.5 2.5H7.5C7.76522 2.5 8.01957 2.60536 8.20711 2.79289C8.39464 2.98043 8.5 3.23478 8.5 3.5V7H2.5V3.5ZM6 9.5H8.5V8H6V9.5Z" fill="var(--fill-0, #8F8F8F)"/>
</svg>
