<svg preserveAspectRatio="none" width="100%" height="100%" overflow="visible" style="display: block;" viewBox="0 0 13.5 13.5" fill="none" xmlns="http://www.w3.org/2000/svg">
<path id="Vector" fill-rule="evenodd" clip-rule="evenodd" d="M7.5 0.75V0H6V1.75H7.5V0.75ZM6.75 8.75C7.28043 8.75 7.78914 8.53929 8.16421 8.16421C8.53929 7.78914 8.75 7.28043 8.75 6.75C8.75 6.21957 8.53929 5.71086 8.16421 5.33579C7.78914 4.96071 7.28043 4.75 6.75 4.75C6.21957 4.75 5.71086 4.96071 5.33579 5.33579C4.96071 5.71086 4.75 6.21957 4.75 6.75C4.75 7.28043 4.96071 7.78914 5.33579 8.16421C5.71086 8.53929 6.21957 8.75 6.75 8.75ZM6.75 10.25C7.67826 10.25 8.5685 9.88125 9.22487 9.22487C9.88125 8.5685 10.25 7.67826 10.25 6.75C10.25 5.82174 9.88125 4.9315 9.22487 4.27513C8.5685 3.61875 7.67826 3.25 6.75 3.25C5.82174 3.25 4.9315 3.61875 4.27513 4.27513C3.61875 4.9315 3.25 5.82174 3.25 6.75C3.25 7.67826 3.61875 8.5685 4.27513 9.22487C4.9315 9.88125 5.82174 10.25 6.75 10.25ZM7.5 11.75V13.5H6V11.75H7.5ZM11.75 6H13.5V7.5H11.75V6ZM0.75 6H0V7.5H1.75V6H0.75ZM9.75 2.68L10.29 2.15L10.46 1.98L10.99 1.45L12.05 2.51L11.52 3.04L11.35 3.21L10.82 3.74L9.75 2.68ZM1.98 10.46L1.45 10.99L2.51 12.05L3.04 11.52L3.21 11.35L3.74 10.82L2.68 9.75L2.15 10.28L1.98 10.46ZM2.68 3.75L2.15 3.22L1.98 3.05L1.45 2.52L2.51 1.45L3.04 1.98L3.21 2.15L3.74 2.68L2.68 3.75ZM10.46 11.53L10.99 12.06L12.05 11L11.52 10.47L11.35 10.3L10.82 9.77L9.75 10.82L10.28 11.35L10.46 11.53Z" fill="var(--fill-0, #8F8F8F)"/>
</svg>
