<svg preserveAspectRatio="none" width="100%" height="100%" overflow="visible" style="display: block;" viewBox="0 0 16 16" fill="none" xmlns="http://www.w3.org/2000/svg">
<g id="Icon">
<path id="Vector" d="M9.18 0C9.41213 0.0257007 9.62794 0.131837 9.79 0.3L14.21 4.7C14.3027 4.79344 14.376 4.90426 14.4258 5.02609C14.4755 5.14793 14.5008 5.27839 14.5 5.41V13.5C14.5 14.163 14.2366 14.7989 13.7678 15.2678C13.2989 15.7366 12.663 16 12 16H4C3.33696 16 2.70107 15.7366 2.23223 15.2678C1.76339 14.7989 1.5 14.163 1.5 13.5V0H9.19M3 13.5C3 13.7652 3.10536 14.0196 3.29289 14.2071C3.48043 14.3946 3.73478 14.5 4 14.5H12C12.2652 14.5 12.5196 14.3946 12.7071 14.2071C12.8946 14.0196 13 13.7652 13 13.5V5.62L8.88 1.5H3V13.5ZM11.63 12.25H4.5V11H11.63V12.25ZM11.63 9.25H4.5V8H11.63V9.25ZM6.63 6.25H4.5V5H6.63V6.25Z" fill="var(--fill-0, #171717)"/>
</g>
</svg>
