<svg preserveAspectRatio="none" width="100%" height="100%" overflow="visible" style="display: block;" viewBox="0 0 16 16" fill="none" xmlns="http://www.w3.org/2000/svg">
<g id="Icon">
<path id="Vector" fill-rule="evenodd" clip-rule="evenodd" d="M13.5 4V6H2.5V2.5H6L7.33 3.5C7.78333 3.82667 8.28333 3.99333 8.83 4H13.5ZM1 6V1H6.17C6.38637 1 6.5969 1.07018 6.77 1.2L8.23 2.3C8.4031 2.42982 8.61363 2.5 8.83 2.5H15V6H16L15.83 7.5L15.25 12.78C15.1811 13.3917 14.8889 13.9564 14.4294 14.366C13.97 14.7757 13.3755 15.0014 12.76 15H3.24C2.62445 15.0014 2.03003 14.7757 1.57057 14.366C1.11112 13.9564 0.81894 13.3917 0.75 12.78L0.17 7.5L0 6H1ZM14 7.5H1.68L2.24 12.61C2.26719 12.8557 2.38443 13.0827 2.56911 13.247C2.75378 13.4114 2.99279 13.5015 3.24 13.5H12.76C13.0072 13.5015 13.2462 13.4114 13.4309 13.247C13.6156 13.0827 13.7328 12.8557 13.76 12.61L14.32 7.5H14Z" fill="var(--fill-0, #171717)"/>
</g>
</svg>
