<svg preserveAspectRatio="none" width="100%" height="100%" overflow="visible" style="display: block;" viewBox="0 0 16 16" fill="none" xmlns="http://www.w3.org/2000/svg">
<g id="Icon" clip-path="url(#clip0_0_4)">
<path id="Vector" fill-rule="evenodd" clip-rule="evenodd" d="M2.9 10.4L2.98 10.63C3.4925 11.6931 3.63336 12.8974 3.38 14.05C4.22396 13.7502 5.01158 13.3107 5.71 12.75L6.22 12.32L6.89 12.42C7.25 12.4733 7.62 12.5 8 12.5C11.78 12.5 14.5 9.86 14.5 7C14.5 4.14 11.78 1.5 8 1.5C4.22 1.5 1.5 4.14 1.5 7C1.5 8.18 1.94 9.3 2.73 10.22L2.9 10.4ZM2.81 15.77C2.21602 15.9078 1.60957 15.9848 1 16C1 16 1.43 15.31 1.73 14.44C1.88 13.98 2 13.48 2 13C2 12.38 1.8 11.73 1.6 11.19C0.578716 10.0321 0.0104625 8.54394 0 7C0 3.13 3.58 0 8 0C12.42 0 16 3.13 16 7C16 10.87 12.42 14 8 14C7.54667 14 7.10333 13.9667 6.67 13.9C5.55956 14.8357 4.23256 15.4786 2.81 15.77Z" fill="var(--fill-0, #171717)"/>
</g>
<defs>
<clipPath id="clip0_0_4">
<rect width="16" height="16" fill="white"/>
</clipPath>
</defs>
</svg>
